<?xml version="1.0" encoding="UTF-8"?>
<svg id="Layer_1" data-name="Layer 1" xmlns="http://www.w3.org/2000/svg" viewBox="0 0 2554.72 567.77">
  <defs>
    <style>
      .cls-1 {
        fill: #fff;
      }
    </style>
  </defs>
  <g>
    <polygon class="cls-1" points="509.32 90.27 496.7 381.34 370.19 507.91 357.51 242.15 509.32 90.27"/>
    <path class="cls-1" d="m218.32,103.02l-126.51,126.51,265.7,12.62,151.75-151.87-290.94,12.74Zm125.6,104.19l-173.09-8.29,62.31-62.25,189.61-8.29-78.83,78.83Z"/>
  </g>
  <path class="cls-1" d="m2454.06,372.32c-4.95,4.14-11.77,7.49-20.28,10.12-8.52,2.7-17.49,4.02-26.94,4.02s-17.91-1.78-25.6-5.31c-7.63-3.55-14.12-8.42-19.37-14.58-5.33-6.19-9.43-13.49-12.39-22.05-2.92-8.58-4.4-17.81-4.4-27.77v-109.47h-38.84v-57.43h38.84v-59.6l60.87-30.39v90h55.66v57.43h-55.66v93.13c0,11.16,1.95,18.66,5.74,22.47,3.85,3.53,9.43,5.31,16.78,5.31,5.6,0,10.73-1.32,15.46-3.96,5.01-2.68,11.32-7.24,18.97-13.69l-8.86,61.77Zm-164.16-255.54c-3.21-1.46-6.47-2.62-9.68-3.55-3.25-.81-7.08-1.3-11.48-1.3-9.15,0-15.13,1.46-18.11,4.42-2.96,2.92-4.38,7.61-4.38,14.14v19.37h39.23v57.43h-39.23v174.26h-60.95v-174.26h-27.77v-57.43h27.77v-27.75c0-21.81,5.78-37.38,17.22-46.8,11.48-9.41,27.79-14.18,49.03-14.18,14.95,0,27.75,2.27,38.34,6.65v49.01Zm-210.92,149.15c0-17.63-3.55-32.35-10.59-44.12-7.06-12.05-17.95-18.11-32.7-18.11s-25.58,5.9-32.66,17.67c-6.75,11.74-10.12,26.61-10.12,44.56s3.37,32.82,10.12,44.61c7.08,11.46,17.97,17.18,32.66,17.18,7.36,0,13.73-1.58,18.97-4.83,5.6-3.51,10.16-8.11,13.73-13.65,3.49-5.88,6.17-12.52,7.93-19.94,1.74-7.61,2.66-15.4,2.66-23.37h0Zm61.79,0c0,17.71-2.66,34-7.99,48.97-5.29,14.75-12.64,27.42-22.07,37.99-9.11,10.59-20.12,18.86-33.1,24.71-12.94,5.92-26.9,8.86-41.93,8.86s-28.93-2.94-41.91-8.86c-12.64-5.86-23.65-14.12-33.08-24.71-9.15-10.57-16.31-23.23-21.62-37.99-5.34-14.97-7.97-31.26-7.97-48.97s2.62-33.83,7.97-48.54c5.31-14.99,12.47-27.79,21.62-38.4,9.43-10.85,20.43-19.27,33.08-25.13,12.98-5.88,26.94-8.82,41.91-8.82s28.99,2.94,41.93,8.82c12.98,5.86,23.98,14.28,33.1,25.13,9.43,10.61,16.78,23.41,22.07,38.4,5.33,14.71,7.99,30.91,7.99,48.54h0Zm-233.92,48.13c0,13.29-2.51,24.56-7.51,33.96-4.99,9.15-11.76,16.61-20.32,22.52-8.52,5.56-18.54,9.57-30,11.89-11.46,2.7-23.71,4.02-36.63,4.02-18.54,0-36.35-2.39-53.41-7.12-16.75-4.97-31.34-11.62-43.67-19.84l20.3-46.29c12.33,6.77,25.01,12.01,37.95,15.86,13.23,3.51,27.36,5.31,42.41,5.31,12.03,0,20.12-1.46,24.24-4.42,4.42-2.92,6.61-7.38,6.61-13.2,0-5.36-2.5-9.59-7.53-12.86-4.67-3.23-13.49-6.77-26.43-10.53-13.85-4.14-26.47-8.26-37.93-12.41-11.22-4.44-20.79-9.43-28.7-15.03-7.99-5.82-14.16-12.92-18.58-21.14-4.08-8.26-6.17-18.62-6.17-30.89s2.23-22.41,6.65-30.95c4.67-8.84,11.16-16.02,19.41-21.6,8.24-5.62,17.95-9.72,29.15-12.33,11.48-2.66,23.92-3.98,37.49-3.98,14.69,0,29.53,2.05,44.58,6.17,14.99,4.1,28.68,9.55,41.01,16.29l-19.37,48.11c-11.54-6.17-23.29-10.69-35.36-13.69-11.74-3.25-22.47-4.83-32.17-4.83-12.35,0-20.71,1.3-25.15,4.02-4.16,2.27-6.21,5.98-6.21,11.01,0,2.35.59,4.58,1.81,6.61,1.16,1.78,3.33,3.69,6.61,5.74,3.53,1.7,8.36,3.79,14.54,6.17,6.43,2.35,14.87,5.19,25.17,8.38,10.26,3.55,20.18,7.18,29.55,11.05,9.41,3.87,17.61,8.48,24.71,14.08,7.12,5.66,12.64,12.56,16.78,20.75,4.1,7.99,6.19,17.69,6.19,29.15h0Zm-223.33-93.13c-5.01-4.42-10.45-7.91-16.35-10.57-5.86-2.96-12.19-4.42-18.95-4.42-5.9,0-11.32.73-16.31,2.21-4.71,1.46-8.84,4.1-12.39,7.91-3.18,3.87-5.9,8.99-7.91,15.48-1.78,6.49-2.66,14.67-2.66,24.67v125.34h-60.91v-231.69h60.91v15.5c5.27-5.64,11.77-10.32,19.43-14.14,7.91-4.12,17.34-6.17,28.24-6.17,9.98,0,18.52,1.74,25.54,5.29,7.4,3.25,13.14,6.92,17.28,11.03l-15.92,59.56Zm-240.09,63.57c-5.29-3.18-11.01-5.6-17.22-7.08-5.88-1.74-14.3-2.64-25.15-2.64-11.48,0-20.28,2.52-26.47,7.49-5.88,5.03-8.8,12.23-8.8,21.64,0,8.22,2.62,15.48,7.89,21.68,5.33,6.15,14.44,9.21,27.38,9.21,10.06,0,18.7-2.03,26.04-6.17,7.67-4.38,13.08-9.43,16.33-14.99v-29.13Zm0,97.06v-15.4c-5.54,5.86-12.94,10.69-22.03,14.52-9.11,3.83-19.11,5.8-30.02,5.8s-21.5-1.62-31.75-4.91c-10.32-3.51-19.57-8.66-27.83-15.4-7.93-6.75-14.42-15.29-19.45-25.62-5.01-10.26-7.53-22.45-7.53-36.63,0-12.94,2.39-24.06,7.1-33.51,5.01-9.72,11.81-17.69,20.32-23.87,8.56-6.45,18.36-11.26,29.57-14.56,11.48-3.23,23.85-4.85,37.12-4.85,10.51,0,19.37,1.07,26.43,3.12,7.08,1.74,13.12,3.79,18.09,6.17v-11.52c0-8.19-2.78-15.13-8.4-20.77-5.27-5.86-13.53-8.76-24.67-8.76-7.06,0-13.37.28-18.97.85-5.31.61-10.45,1.5-15.46,2.7-4.67,1.14-9.41,2.74-14.12,4.79-4.69,1.81-9.7,4.12-15.01,7.1l-23.39-42.39c6.8-3.83,13.27-7.22,19.45-10.14,6.47-2.96,13.1-5.31,19.88-7.06,7.02-2.05,14.4-3.55,22.05-4.44,7.59-1.14,16.15-1.74,25.58-1.74,14.1,0,26.9,1.74,38.38,5.29,11.48,3.53,21.36,8.8,29.59,15.88,8.22,6.75,14.54,15.29,18.99,25.58,4.67,10.02,7.04,21.52,7.04,34.38v155.38h-60.93Zm-168.18-67.49c0,13.29-2.49,24.56-7.51,33.96-4.99,9.15-11.72,16.61-20.32,22.52-8.48,5.56-18.52,9.57-29.96,11.89-2.49.63-5.01,1.12-7.53,1.6,0,16.78-13.63,30.41-30.41,30.41s-30.41-13.63-30.41-30.41c-7.38-1.16-14.6-2.72-21.68-4.69-16.78-4.97-31.36-11.62-43.69-19.84l20.33-46.29c12.35,6.77,24.97,12.01,37.89,15.86,13.27,3.51,27.44,5.31,42.37,5.31,12.11,0,20.18-1.46,24.28-4.42,4.42-2.92,6.63-7.38,6.63-13.2,0-5.36-2.5-9.59-7.51-12.86-4.65-3.23-13.57-6.77-26.45-10.53-13.79-4.14-26.47-8.26-37.95-12.41-11.2-4.44-20.77-9.43-28.68-15.03-7.95-5.82-14.16-12.92-18.58-21.14-4.08-8.26-6.13-18.62-6.13-30.89s2.17-22.41,6.57-30.95c4.75-8.84,11.18-16.02,19.43-21.6,8.24-5.62,17.97-9.72,29.15-12.33,11.48-2.66,24-3.98,37.51-3.98,14.69,0,29.57,2.05,44.59,6.17,14.99,4.1,28.64,9.55,41.01,16.29l-19.41,48.11c-11.48-6.17-23.25-10.69-35.29-13.69-11.79-3.25-22.5-4.83-32.23-4.83-12.37,0-20.73,1.3-25.17,4.02-4.12,2.27-6.15,5.98-6.15,11.01,0,2.35.59,4.58,1.76,6.61,1.16,1.78,3.39,3.69,6.65,5.74,3.51,1.7,8.36,3.79,14.5,6.17,6.51,2.35,14.89,5.19,25.19,8.38,10.28,3.55,20.16,7.18,29.55,11.05,9.43,3.87,17.65,8.48,24.75,14.08,7.06,5.66,12.64,12.56,16.76,20.75,4.1,7.99,6.15,17.69,6.15,29.15h0Zm-287.69-29.57c-5.33-3.18-11.1-5.6-17.26-7.08-5.9-1.74-14.26-2.64-25.15-2.64-11.48,0-20.32,2.52-26.47,7.49-5.9,5.03-8.86,12.23-8.86,21.64,0,8.22,2.64,15.48,7.93,21.68,5.31,6.15,14.42,9.21,27.4,9.21,10.02,0,18.72-2.03,26.02-6.17,7.69-4.38,13.1-9.43,16.39-14.99v-29.13Zm0,97.06v-15.4c-5.62,5.86-12.98,10.69-22.11,14.52-9.11,3.83-19.11,5.8-30.02,5.8s-21.48-1.62-31.75-4.91c-10.34-3.51-19.57-8.66-27.79-15.4-7.99-6.75-14.44-15.29-19.47-25.62-4.95-10.26-7.48-22.45-7.48-36.63,0-12.94,2.33-24.06,7.04-33.51,5.03-9.72,11.79-17.69,20.3-23.87,8.56-6.45,18.4-11.26,29.57-14.56,11.48-3.23,23.89-4.85,37.12-4.85,10.59,0,19.41,1.07,26.45,3.12,7.04,1.74,13.1,3.79,18.15,6.17v-11.52c0-8.19-2.82-15.13-8.4-20.77-5.31-5.86-13.57-8.76-24.75-8.76-7.06,0-13.39.28-18.97.85-5.31.61-10.45,1.5-15.42,2.7-4.71,1.14-9.41,2.74-14.16,4.79-4.71,1.81-9.66,4.12-14.99,7.1l-23.39-42.39c6.78-3.83,13.23-7.22,19.45-10.14,6.43-2.96,13.06-5.31,19.84-7.06,7.08-2.05,14.42-3.55,22.09-4.44,7.61-1.14,16.17-1.74,25.56-1.74,14.14,0,26.94,1.74,38.42,5.29,11.46,3.53,21.3,8.8,29.57,15.88,8.22,6.75,14.56,15.29,18.91,25.58,4.73,10.02,7.12,21.52,7.12,34.38v155.38h-60.87Zm-224.22-111.64c0-23.83-3.71-41.01-11.03-51.62-7.08-10.59-16.67-15.9-28.72-15.9-9.41,0-16.92,1.72-22.52,5.31-5.6,3.53-10.57,8.22-14.99,14.1v87.43c9.68,13.21,23.41,19.82,41.06,19.82,24.08,0,36.19-19.72,36.19-59.15h0Zm61.77-1.3c0,17.38-2.09,33.25-6.19,47.65-3.83,14.46-9.53,26.94-17.22,37.51-7.67,10.32-17.02,18.38-28.2,24.26-11.2,5.6-24.02,8.42-38.38,8.42-10.35,0-19.7-1.78-28.26-5.31-8.26-3.55-15.17-7.83-20.77-12.84v13.23h-60.91V90.25l60.91-30.39v104.57c5.88-4.99,12.64-9.39,20.33-13.21,7.93-4.12,17.49-6.17,28.7-6.17,12.33,0,23.92,2.35,34.83,7.08,10.85,4.69,20.43,12.19,28.68,22.45,8.22,10.02,14.69,22.84,19.43,38.44,4.71,15.25,7.06,33.83,7.06,55.6h0Z"/>
</svg>